<?xml version="1.0" encoding="UTF-8" standalone="no"?>
<!DOCTYPE svg PUBLIC "-//W3C//DTD SVG 1.1//EN"
 "http://www.w3.org/Graphics/SVG/1.1/DTD/svg11.dtd">
<!-- Generated by graphviz version 2.40.1 (20161225.0304)
 -->
<!-- Title: G Pages: 1 -->
<svg width="470pt" height="638pt"
 viewBox="0.00 0.00 470.00 638.00" xmlns="http://www.w3.org/2000/svg" xmlns:xlink="http://www.w3.org/1999/xlink">
<g id="graph0" class="graph" transform="scale(1 1) rotate(0) translate(4 634)">
<title>G</title>
<polygon fill="#ffffff" stroke="transparent" points="-4,4 -4,-634 466,-634 466,4 -4,4"/>
<!-- runtime_error -->
<g id="node1" class="node">
<title>runtime_error</title>
<polygon fill="none" stroke="#000000" points="296,-171 166,-171 166,-135 296,-135 296,-171"/>
<text text-anchor="middle" x="231" y="-150.5" font-family="Times,serif" font-size="10.00" fill="#000000">runtime_error</text>
</g>
<!-- exception -->
<g id="node2" class="node">
<title>exception</title>
<polygon fill="none" stroke="#000000" points="130,-279 0,-279 0,-243 130,-243 130,-279"/>
<text text-anchor="middle" x="65" y="-258.5" font-family="Times,serif" font-size="10.00" fill="#000000">exception</text>
</g>
<!-- runtime_error&#45;&gt;exception -->
<g id="edge1" class="edge">
<title>runtime_error&#45;&gt;exception</title>
<path fill="none" stroke="#000000" d="M203.2153,-171.0768C175.3257,-189.2218 132.2138,-217.2705 101.5617,-237.2129"/>
<polygon fill="#000000" stroke="#000000" points="99.3487,-234.477 92.8753,-242.8643 103.1662,-240.3445 99.3487,-234.477"/>
</g>
<!-- kernel_error -->
<g id="node3" class="node">
<title>kernel_error</title>
<polygon fill="none" stroke="#000000" points="462,-252 332,-252 332,-216 462,-216 462,-252"/>
<text text-anchor="middle" x="397" y="-231.5" font-family="Times,serif" font-size="10.00" fill="#000000">kernel_error</text>
</g>
<!-- kernel_error&#45;&gt;runtime_error -->
<g id="edge2" class="edge">
<title>kernel_error&#45;&gt;runtime_error</title>
<path fill="none" stroke="#000000" d="M351.9925,-215.9743C345.2445,-213.0788 338.4052,-210.0338 332,-207 311.9538,-197.5052 290.1997,-186.0315 272.0326,-176.1063"/>
<polygon fill="#000000" stroke="#000000" points="273.3363,-172.8289 262.8875,-171.076 269.9626,-178.9623 273.3363,-172.8289"/>
</g>
<!-- accessor_error -->
<g id="node4" class="node">
<title>accessor_error</title>
<polygon fill="none" stroke="#000000" points="462,-198 332,-198 332,-162 462,-162 462,-198"/>
<text text-anchor="middle" x="397" y="-177.5" font-family="Times,serif" font-size="10.00" fill="#000000">accessor_error</text>
</g>
<!-- accessor_error&#45;&gt;runtime_error -->
<g id="edge3" class="edge">
<title>accessor_error&#45;&gt;runtime_error</title>
<path fill="none" stroke="#000000" d="M331.8688,-169.4064C323.447,-168.0366 314.7676,-166.6248 306.1999,-165.2313"/>
<polygon fill="#000000" stroke="#000000" points="306.648,-161.7583 296.2158,-163.6074 305.5242,-168.6675 306.648,-161.7583"/>
</g>
<!-- nd_range_error -->
<g id="node5" class="node">
<title>nd_range_error</title>
<polygon fill="none" stroke="#000000" points="462,-144 332,-144 332,-108 462,-108 462,-144"/>
<text text-anchor="middle" x="397" y="-123.5" font-family="Times,serif" font-size="10.00" fill="#000000">nd_range_error</text>
</g>
<!-- nd_range_error&#45;&gt;runtime_error -->
<g id="edge4" class="edge">
<title>nd_range_error&#45;&gt;runtime_error</title>
<path fill="none" stroke="#000000" d="M331.8688,-136.5936C323.447,-137.9634 314.7676,-139.3752 306.1999,-140.7687"/>
<polygon fill="#000000" stroke="#000000" points="305.5242,-137.3325 296.2158,-142.3926 306.648,-144.2417 305.5242,-137.3325"/>
</g>
<!-- event_error -->
<g id="node6" class="node">
<title>event_error</title>
<polygon fill="none" stroke="#000000" points="462,-90 332,-90 332,-54 462,-54 462,-90"/>
<text text-anchor="middle" x="397" y="-69.5" font-family="Times,serif" font-size="10.00" fill="#000000">event_error</text>
</g>
<!-- event_error&#45;&gt;runtime_error -->
<g id="edge5" class="edge">
<title>event_error&#45;&gt;runtime_error</title>
<path fill="none" stroke="#000000" d="M351.9925,-90.0257C345.2445,-92.9212 338.4052,-95.9662 332,-99 311.9538,-108.4948 290.1997,-119.9685 272.0326,-129.8937"/>
<polygon fill="#000000" stroke="#000000" points="269.9626,-127.0377 262.8875,-134.924 273.3363,-133.1711 269.9626,-127.0377"/>
</g>
<!-- invalid_parameter_error -->
<g id="node7" class="node">
<title>invalid_parameter_error</title>
<polygon fill="none" stroke="#000000" points="462,-36 332,-36 332,0 462,0 462,-36"/>
<text text-anchor="middle" x="397" y="-15.5" font-family="Times,serif" font-size="10.00" fill="#000000">invalid_parameter_error</text>
</g>
<!-- invalid_parameter_error&#45;&gt;runtime_error -->
<g id="edge6" class="edge">
<title>invalid_parameter_error&#45;&gt;runtime_error</title>
<path fill="none" stroke="#000000" d="M347.2054,-36.0602C341.8971,-38.7464 336.7196,-41.7274 332,-45 299.1643,-67.7686 268.9206,-102.7744 250.2553,-126.7202"/>
<polygon fill="#000000" stroke="#000000" points="247.4526,-124.6235 244.1508,-134.6907 253.01,-128.8798 247.4526,-124.6235"/>
</g>
<!-- device_error -->
<g id="node8" class="node">
<title>device_error</title>
<polygon fill="none" stroke="#000000" points="296,-441 166,-441 166,-405 296,-405 296,-441"/>
<text text-anchor="middle" x="231" y="-420.5" font-family="Times,serif" font-size="10.00" fill="#000000">device_error</text>
</g>
<!-- device_error&#45;&gt;exception -->
<g id="edge7" class="edge">
<title>device_error&#45;&gt;exception</title>
<path fill="none" stroke="#000000" d="M212.2804,-404.7314C182.5616,-375.7288 124.5132,-319.0792 90.8483,-286.2254"/>
<polygon fill="#000000" stroke="#000000" points="93.2525,-283.6813 83.6512,-279.2018 88.3635,-288.691 93.2525,-283.6813"/>
</g>
<!-- compile_program_error -->
<g id="node9" class="node">
<title>compile_program_error</title>
<polygon fill="none" stroke="#000000" points="462,-630 332,-630 332,-594 462,-594 462,-630"/>
<text text-anchor="middle" x="397" y="-609.5" font-family="Times,serif" font-size="10.00" fill="#000000">compile_program_error</text>
</g>
<!-- compile_program_error&#45;&gt;device_error -->
<g id="edge8" class="edge">
<title>compile_program_error&#45;&gt;device_error</title>
<path fill="none" stroke="#000000" d="M344.8793,-593.9017C340.2928,-591.2774 335.9137,-588.32 332,-585 287.8743,-547.5684 256.9597,-485.8469 241.7594,-450.3749"/>
<polygon fill="#000000" stroke="#000000" points="244.9732,-448.9879 237.8909,-441.108 238.5134,-451.6845 244.9732,-448.9879"/>
</g>
<!-- link_program_error -->
<g id="node10" class="node">
<title>link_program_error</title>
<polygon fill="none" stroke="#000000" points="462,-576 332,-576 332,-540 462,-540 462,-576"/>
<text text-anchor="middle" x="397" y="-555.5" font-family="Times,serif" font-size="10.00" fill="#000000">link_program_error</text>
</g>
<!-- link_program_error&#45;&gt;device_error -->
<g id="edge9" class="edge">
<title>link_program_error&#45;&gt;device_error</title>
<path fill="none" stroke="#000000" d="M347.2054,-539.9398C341.8971,-537.2536 336.7196,-534.2726 332,-531 299.1643,-508.2314 268.9206,-473.2256 250.2553,-449.2798"/>
<polygon fill="#000000" stroke="#000000" points="253.01,-447.1202 244.1508,-441.3093 247.4526,-451.3765 253.01,-447.1202"/>
</g>
<!-- invalid_object_error -->
<g id="node11" class="node">
<title>invalid_object_error</title>
<polygon fill="none" stroke="#000000" points="462,-522 332,-522 332,-486 462,-486 462,-522"/>
<text text-anchor="middle" x="397" y="-501.5" font-family="Times,serif" font-size="10.00" fill="#000000">invalid_object_error</text>
</g>
<!-- invalid_object_error&#45;&gt;device_error -->
<g id="edge10" class="edge">
<title>invalid_object_error&#45;&gt;device_error</title>
<path fill="none" stroke="#000000" d="M351.9925,-485.9743C345.2445,-483.0788 338.4052,-480.0338 332,-477 311.9538,-467.5052 290.1997,-456.0315 272.0326,-446.1063"/>
<polygon fill="#000000" stroke="#000000" points="273.3363,-442.8289 262.8875,-441.076 269.9626,-448.9623 273.3363,-442.8289"/>
</g>
<!-- memory_allocation_error -->
<g id="node12" class="node">
<title>memory_allocation_error</title>
<polygon fill="none" stroke="#000000" points="462,-468 332,-468 332,-432 462,-432 462,-468"/>
<text text-anchor="middle" x="397" y="-447.5" font-family="Times,serif" font-size="10.00" fill="#000000">memory_allocation_error</text>
</g>
<!-- memory_allocation_error&#45;&gt;device_error -->
<g id="edge11" class="edge">
<title>memory_allocation_error&#45;&gt;device_error</title>
<path fill="none" stroke="#000000" d="M331.8688,-439.4064C323.447,-438.0366 314.7676,-436.6248 306.1999,-435.2313"/>
<polygon fill="#000000" stroke="#000000" points="306.648,-431.7583 296.2158,-433.6074 305.5242,-438.6675 306.648,-431.7583"/>
</g>
<!-- platform_error -->
<g id="node13" class="node">
<title>platform_error</title>
<polygon fill="none" stroke="#000000" points="462,-414 332,-414 332,-378 462,-378 462,-414"/>
<text text-anchor="middle" x="397" y="-393.5" font-family="Times,serif" font-size="10.00" fill="#000000">platform_error</text>
</g>
<!-- platform_error&#45;&gt;device_error -->
<g id="edge12" class="edge">
<title>platform_error&#45;&gt;device_error</title>
<path fill="none" stroke="#000000" d="M331.8688,-406.5936C323.447,-407.9634 314.7676,-409.3752 306.1999,-410.7687"/>
<polygon fill="#000000" stroke="#000000" points="305.5242,-407.3325 296.2158,-412.3926 306.648,-414.2417 305.5242,-407.3325"/>
</g>
<!-- profiling_error -->
<g id="node14" class="node">
<title>profiling_error</title>
<polygon fill="none" stroke="#000000" points="462,-360 332,-360 332,-324 462,-324 462,-360"/>
<text text-anchor="middle" x="397" y="-339.5" font-family="Times,serif" font-size="10.00" fill="#000000">profiling_error</text>
</g>
<!-- profiling_error&#45;&gt;device_error -->
<g id="edge13" class="edge">
<title>profiling_error&#45;&gt;device_error</title>
<path fill="none" stroke="#000000" d="M351.9925,-360.0257C345.2445,-362.9212 338.4052,-365.9662 332,-369 311.9538,-378.4948 290.1997,-389.9685 272.0326,-399.8937"/>
<polygon fill="#000000" stroke="#000000" points="269.9626,-397.0377 262.8875,-404.924 273.3363,-403.1711 269.9626,-397.0377"/>
</g>
<!-- feature_not_supported -->
<g id="node15" class="node">
<title>feature_not_supported</title>
<polygon fill="none" stroke="#000000" points="462,-306 332,-306 332,-270 462,-270 462,-306"/>
<text text-anchor="middle" x="397" y="-285.5" font-family="Times,serif" font-size="10.00" fill="#000000">feature_not_supported</text>
</g>
<!-- feature_not_supported&#45;&gt;device_error -->
<g id="edge14" class="edge">
<title>feature_not_supported&#45;&gt;device_error</title>
<path fill="none" stroke="#000000" d="M347.2054,-306.0602C341.8971,-308.7464 336.7196,-311.7274 332,-315 299.1643,-337.7686 268.9206,-372.7744 250.2553,-396.7202"/>
<polygon fill="#000000" stroke="#000000" points="247.4526,-394.6235 244.1508,-404.6907 253.01,-398.8798 247.4526,-394.6235"/>
</g>
</g>
</svg>
